<svg width="332" height="223" viewBox="0 0 332 223" fill="none" xmlns="http://www.w3.org/2000/svg">
<ellipse cx="65.5" cy="65" rx="65.5" ry="65" transform="matrix(-1 0 0 1 241 38)" fill="#013765"/>
<ellipse cx="34.5" cy="35" rx="34.5" ry="35" transform="matrix(-1 0 0 1 118 153)" fill="#059F9F"/>
<ellipse cx="11.5" cy="11" rx="11.5" ry="11" transform="matrix(-1 0 0 1 153 3)" fill="#F4B118"/>
<circle cx="35" cy="35" r="35" transform="matrix(-1 0 0 1 70 50)" fill="#F4B118"/>
<circle cx="268" cy="108" r="12" fill="#F4B118"/>
<circle cx="35" cy="35" r="35" transform="matrix(-1 0 0 1 332 3)" fill="#059F9F"/>
<circle cx="12.5" cy="12.5" r="12.5" transform="matrix(-1 0 0 1 74 0)" fill="#F4B118"/>
</svg>
